#!OML:ASF F:\VICON\USERDATA\INSTALL\rory3\rory3.ASF
:FULLY-SPECIFIED
:DEGREES
219
root 8.4006 18.1409 -4.06059 -3.03109 -54.4794 6.53022
lowerback 10.7368 2.89176 -2.44526
upperback 0.107468 3.48683 -0.642624
thorax -6.01548 1.76647 0.150073
lowerneck -22.289 -3.66385 -9.2436
upperneck 26.2522 -3.6925 5.62552
head 12.7483 -1.85358 3.07378
rclavicle 2.58917e-014 4.77083e-015
rhumerus -39.1687 -11.1269 -81.025
rradius 32.8027
rwrist 9.99995
rhand -10.4425 9.1968
rfingers 7.12502
rthumb 15.5575 -20.1974
lclavicle 2.58917e-014 4.77083e-015
lhumerus -41.2216 9.85815 80.7946
lradius 28.0673
lwrist -13.2293
lhand -13.7093 25.9208
lfingers 7.12502
lthumb 12.4094 55.5324
rfemur 2.54346 3.85867 15.454
rtibia 49.7951
rfoot 20.4009 9.74684
rtoes 12.2864
lfemur -18.8193 -3.46015 -25.7729
ltibia 20.6237
lfoot -1.43936 -1.0469
ltoes 6.99776
220
root 8.30536 18.1485 -3.96268 -3.81473 -54.3687 7.37485
lowerback 10.8858 2.82249 -3.1163
upperback 0.117354 3.30377 -0.643967
thorax -6.1235 1.69584 0.545893
lowerneck -22.2829 -3.60787 -9.30376
upperneck 26.2198 -3.55715 5.52451
head 12.7213 -1.81335 3.06758
rclavicle -7.57867e-014 1.74931e-014
rhumerus -39.0874 -10.6579 -81.0036
rradius 33.1952
rwrist 10.0178
rhand -10.7485 9.17002
rfingers 7.12502
rthumb 15.2628 -20.2469
lclavicle -7.57867e-014 1.74931e-014
lhumerus -41.0568 9.73869 81.0961
lradius 28.4032
lwrist -13.0895
lhand -14.1219 25.8629
lfingers 7.12502
lthumb 12.0116 55.4982
rfemur 1.06366 3.69631 14.7297
rtibia 52.3732
rfoot 20.8761 9.78219
rtoes 11.772
lfemur -18.1156 -3.57266 -26.4891
ltibia 20.4354
lfoot -1.59804 -1.06283
ltoes 6.46748
221
root 8.20743 18.1493 -3.86411 -4.50391 -54.2628 8.01545
lowerback 11.051 2.7696 -3.65053
upperback 0.139396 3.15813 -0.630849
thorax -6.21867 1.6402 0.875127
lowerneck -22.0776 -3.58811 -9.39781
upperneck 26.0479 -3.46561 5.386
head 12.6026 -1.80112 3.04217
rclavicle 2.00773e-014 1.59028e-014
rhumerus -39.0219 -10.4355 -80.8803
rradius 33.5193
rwrist 9.9703
rhand -10.8456 9.2036
rfingers 7.12502
rthumb 15.1692 -20.2204
lclavicle 2.00773e-014 1.59028e-014
lhumerus -40.9325 9.57915 81.3528
lradius 28.8248
lwrist -12.8523
lhand -14.464 26.0282
lfingers 7.12502
lthumb 11.6817 55.6825
rfemur -0.272946 3.5453 14.1831
rtibia 54.8511
rfoot 20.4075 9.30739
rtoes 9.82616
lfemur -17.3309 -3.5487 -27.0792
ltibia 20.2615
lfoot -1.85173 -1.16508
ltoes 6.2616
222
root 8.11215 18.1471 -3.76988 -5.11161 -54.1446 8.61317
lowerback 11.1426 2.70952 -4.13385
upperback 0.193853 3.00958 -0.655203
thorax -6.23039 1.58 1.14243
lowerneck -21.9614 -3.54779 -9.36528
upperneck 25.8967 -3.36787 5.19858
head 12.5062 -1.77847 2.97797
rclavicle -6.92268e-014 9.14409e-015
rhumerus -38.8783 -10.3606 -80.8197
rradius 33.8827
rwrist 9.74636
rhand -10.6644 9.41797
rfingers 7.12502
rthumb 15.3437 -19.9928
lclavicle -6.92268e-014 9.14409e-015
lhumerus -40.5967 9.20185 81.5933
lradius 29.1265
lwrist -12.532
lhand -14.5064 26.214
lfingers 7.12502
lthumb 11.6407 55.8707
rfemur -1.6454 3.33396 13.6728
rtibia 57.2051
rfoot 19.2957 8.24325
rtoes 8.2792
lfemur -16.6325 -3.37104 -27.6316
ltibia 20.1067
lfoot -2.17105 -1.30467
ltoes 6.94244
223
root 8.01597 18.1457 -3.6775 -5.64177 -53.9646 9.15695
lowerback 11.234 2.6119 -4.60405
upperback 0.217491 2.81182 -0.676286
thorax -6.26879 1.49627 1.4139
lowerneck -21.9914 -3.49503 -9.23613
upperneck 25.9307 -3.2799 5.00858
head 12.5119 -1.75262 2.89826
rclavicle -4.05521e-014 1.19271e-015
rhumerus -38.7186 -10.4086 -80.7604
rradius 34.1735
rwrist 9.58435
rhand -10.6592 9.5695
rfingers 7.12502
rthumb 15.3488 -19.8408
lclavicle -4.05521e-014 1.19271e-015
lhumerus -40.2137 9.00363 81.7005
lradius 29.3039
lwrist -12.3449
lhand -14.6496 26.1925
lfingers 7.12502
lthumb 11.5027 55.8569
rfemur -3.02608 2.98665 13.1733
rtibia 59.4216
rfoot 17.9548 7.13578
rtoes 8.36868
lfemur -15.9952 -3.15855 -28.1515
ltibia 20.003
lfoot -2.47082 -1.53674
ltoes 7.24071
224
root 7.91851 18.1461 -3.58309 -6.06578 -53.7156 9.48333
lowerback 11.3772 2.44455 -4.93216
upperback 0.235346 2.53921 -0.650816
thorax -6.32963 1.37321 1.66647
lowerneck -21.8952 -3.37361 -9.16345
upperneck 25.9717 -3.10858 4.8861
head 12.4904 -1.68887 2.86917
rclavicle -1.08934e-013 9.93923e-015
rhumerus -38.5875 -10.4674 -80.6325
rradius 34.4111
rwrist 9.60704
rhand -10.8584 9.32158
rfingers 7.12502
rthumb 15.1569 -20.1034
lclavicle -1.08934e-013 9.93923e-015
lhumerus -39.9542 9.06706 81.6834
lradius 29.606
lwrist -12.1408
lhand -14.7894 26.1295
lfingers 7.12502
lthumb 11.3678 55.8013
rfemur -4.25875 2.58159 12.8067
rtibia 61.4632
rfoot 16.4668 6.25993
rtoes 10.1372
lfemur -15.2922 -2.82683 -28.5676
ltibia 19.9341
lfoot -2.81861 -1.98687
ltoes 6.85653
225
root 7.82243 18.1447 -3.48416 -6.63409 -53.4927 9.91226
lowerback 11.5019 2.29851 -5.24854
upperback 0.311441 2.29701 -0.639074
thorax -6.31598 1.26201 1.89598
lowerneck -21.7674 -3.29422 -9.32451
upperneck 25.9708 -2.96928 4.94446
head 12.4568 -1.63793 2.9431
rclavicle 2.93207e-014 -2.78299e-015
rhumerus -38.4306 -10.4315 -80.4974
rradius 34.6925
rwrist 9.21855
rhand -11.1235 8.64736
rfingers 7.12502
rthumb 14.9015 -20.7967
lclavicle 2.93207e-014 -2.78299e-015
lhumerus -39.667 9.22355 81.6976
lradius 29.9786
lwrist -11.9467
lhand -14.677 26.0157
lfingers 7.12502
lthumb 11.4763 55.6816
rfemur -5.42049 2.10354 12.3433
rtibia 63.3324
rfoot 14.7187 5.84993
rtoes 11.2587
lfemur -14.5116 -2.59754 -29.0478
ltibia 19.8759
lfoot -3.20288 -2.25961
ltoes 6.66374
226
root 7.72561 18.1431 -3.38465 -7.13494 -53.336 10.2334
lowerback 11.5138 2.18434 -5.23874
upperback 0.501272 2.13619 -0.832922
thorax -6.10087 1.17105 1.71844
lowerneck -21.7239 -3.27909 -9.29915
upperneck 25.8664 -3.02107 5.15239
head 12.4129 -1.62875 3.0086
rclavicle 8.05078e-014 -1.98785e-014
rhumerus -38.1456 -10.728 -80.6543
rradius 34.9826
rwrist 8.76912
rhand -11.3233 8.4025
rfingers 7.12502
rthumb 14.709 -21.0557
lclavicle 8.05078e-014 -1.98785e-014
lhumerus -39.1088 9.059 81.5328
lradius 30.2742
lwrist -12.1316
lhand -14.4213 26.0161
lfingers 7.12502
lthumb 11.7228 55.6681
rfemur -6.56079 1.65437 11.9929
rtibia 65.0186
rfoot 12.8783 5.62759
rtoes 11.0119
lfemur -13.7219 -2.59987 -29.4265
ltibia 19.8557
lfoot -3.56492 -2.18184
ltoes 7.14529
227
root 7.62768 18.1442 -3.29307 -7.31965 -53.145 10.3134
lowerback 11.3936 2.0319 -4.94133
upperback 0.688406 1.96252 -1.16654
thorax -5.80014 1.06324 1.23876
lowerneck -21.76 -3.25109 -8.96491
upperneck 25.7665 -3.14024 5.3043
head 12.3851 -1.62502 2.98872
rclavicle -3.2054e-014 -9.14409e-015
rhumerus -37.8681 -11.6502 -80.9302
rradius 35.3395
rwrist 8.77555
rhand -11.3953 8.52021
rfingers 7.12502
rthumb 14.6396 -20.943
lclavicle -3.2054e-014 -9.14409e-015
lhumerus -38.3892 8.37571 81.2582
lradius 30.5579
lwrist -12.0224
lhand -14.2018 26.2873
lfingers 7.12502
lthumb 11.9345 55.9272
rfemur -7.82734 1.22592 11.8484
rtibia 66.5387
rfoot 11.1652 5.26546
rtoes 9.7486
lfemur -13.1183 -2.60747 -29.6323
ltibia 19.9097
lfoot -4.00404 -2.14158
ltoes 7.04335
